<svg height="346" viewBox="0 0 557 346" width="557" xmlns="http://www.w3.org/2000/svg" xmlns:xlink="http://www.w3.org/1999/xlink"><defs><circle id="a" cx="142.5" cy="142.5" r="142.5"/><mask id="b" fill="#fff"><use fill="#fff" fill-rule="evenodd" xlink:href="#a"/></mask></defs><g fill="none" fill-rule="evenodd" transform="translate(136 31)"><use fill="#095d92" xlink:href="#a"/><path d="m112 272.5c-6.903559 0-12.5 5.596441-12.5 12.5s5.596441 12.5 12.5 12.5h59c6.903559 0 12.5-5.596441 12.5-12.5s-5.596441-12.5-12.5-12.5z" fill="#fff" mask="url(#b)" stroke="#fff"/><g fill="#58a439"><path d="m56.3246122 256c-10.8516287-8.251871-20.4839719-18.02442-28.5793834-29h54.8774702c3.0493284 0 5.6082796.603366 7.7267981 1.736363 2.1185185 1.132996 3.7811442 2.795621 4.9141403 4.91414 1.1329961 2.118518 1.7363626 4.67747 1.7363626 7.726798v.245398c0 3.049328-.6033665 5.60828-1.7363626 7.726798-1.1329961 2.118519-2.7956218 3.781144-4.9141403 4.91414-2.1185185 1.132997-4.6774697 1.736363-7.7267981 1.736363z" mask="url(#b)"/><path d="m.19398088 135c.78152189-15.071823 3.90488002-29.524128 9.01316142-43.0000012l85.1276039.0000012c5.7948718 0 7.8962328.6033665 10.0147508 1.7363626 2.118519 1.1329961 3.781144 2.7956218 4.91414 4.9141403 1.132997 2.1185181 1.736363 4.2198791 1.736363 10.0147511v9.669492c0 5.794872-.603366 7.896233-1.736363 10.014751-1.132996 2.118519-2.795621 3.781144-4.91414 4.91414-2.118518 1.132997-4.219879 1.736363-10.0147508 1.736363z" mask="url(#b)"/><path d="m257.254771 227c-13.323871 18.06421-30.811041 32.869604-51.04533 43.000001l-24.709441-.000001c-11.874122 0-21.5-9.625878-21.5-21.5s9.625878-21.5 21.5-21.5z" mask="url(#b)"/><path d="m250.116573 87h52.766854c5.136455 0 7.347552.6033665 9.46607 1.7363626 2.118519 1.1329961 3.781144 2.7956218 4.91414 4.9141403 1.132997 2.1185185 1.736363 4.3296153 1.736363 9.4660701v5.766854c0 5.136455-.603366 7.347552-1.736363 9.46607-1.132996 2.118519-2.795621 3.781144-4.91414 4.91414-2.118518 1.132997-4.329615 1.736363-9.46607 1.736363h-52.766854c-5.136455 0-7.347552-.603366-9.46607-1.736363-2.118519-1.132996-3.781144-2.795621-4.91414-4.91414-1.132997-2.118518-1.736363-4.329615-1.736363-9.46607v-5.766854c0-5.1364548.603366-7.3475516 1.736363-9.4660701 1.132996-2.1185185 2.795621-3.7811442 4.91414-4.9141403 2.118518-1.1329961 4.329615-1.7363626 9.46607-1.7363626z" mask="url(#b)"/><path d="m226.5 125c4.142136 0 7.5 3.357864 7.5 7.5v23c0 4.142136-3.357864 7.5-7.5 7.5-4.142136 0-7.5-3.357864-7.5-7.5v-23c0-4.142136 3.357864-7.5 7.5-7.5z" mask="url(#b)"/><path d="m202.5 126h2c3.589851 0 6.5 2.910149 6.5 6.5 0 3.589851-2.910149 6.5-6.5 6.5h-2c-3.589851 0-6.5-2.910149-6.5-6.5 0-3.589851 2.910149-6.5 6.5-6.5z" mask="url(#b)"/><path d="m276.116573 113h52.766854c5.136455 0 7.347552.603366 9.46607 1.736363 2.118519 1.132996 3.781144 2.795621 4.91414 4.91414 1.132997 2.118518 1.736363 4.329615 1.736363 9.46607v5.766854c0 5.136455-.603366 7.347552-1.736363 9.46607-1.132996 2.118519-2.795621 3.781144-4.91414 4.91414-2.118518 1.132997-4.329615 1.736363-9.46607 1.736363h-52.766854c-5.136455 0-7.347552-.603366-9.46607-1.736363-2.118519-1.132996-3.781144-2.795621-4.91414-4.91414-1.132997-2.118518-1.736363-4.329615-1.736363-9.46607v-5.766854c0-5.136455.603366-7.347552 1.736363-9.46607 1.132996-2.118519 2.795621-3.781144 4.91414-4.91414 2.118518-1.132997 4.329615-1.736363 9.46607-1.736363z" mask="url(#b)"/><path d="m264.116573 169h64.766854c5.136455 0 7.347552.603366 9.46607 1.736363 2.118519 1.132996 3.781144 2.795621 4.91414 4.91414 1.132997 2.118518 1.736363 4.329615 1.736363 9.46607v5.766854c0 5.136455-.603366 7.347552-1.736363 9.46607-1.132996 2.118519-2.795621 3.781144-4.91414 4.91414-2.118518 1.132997-4.329615 1.736363-9.46607 1.736363h-64.766854c-5.136455 0-7.347552-.603366-9.46607-1.736363-2.118519-1.132996-3.781144-2.795621-4.91414-4.91414-1.132997-2.118518-1.736363-4.329615-1.736363-9.46607v-5.766854c0-5.136455.603366-7.347552 1.736363-9.46607 1.132996-2.118519 2.795621-3.781144 4.91414-4.91414 2.118518-1.132997 4.329615-1.736363 9.46607-1.736363z" mask="url(#b)"/><path d="m42.377301 147h40.245398c3.0493284 0 5.6082796.603366 7.7267981 1.736363 2.1185185 1.132996 3.7811442 2.795621 4.9141403 4.91414 1.1329961 2.118518 1.7363626 4.67747 1.7363626 7.726798v.245398c0 3.049328-.6033665 5.60828-1.7363626 7.726798-1.1329961 2.118519-2.7956218 3.781144-4.9141403 4.91414-2.1185185 1.132997-4.6774697 1.736363-7.7267981 1.736363h-40.245398c-3.0493284 0-5.6082796-.603366-7.7267981-1.736363-2.1185185-1.132996-3.7811442-2.795621-4.9141403-4.91414-1.1329961-2.118518-1.7363626-4.67747-1.7363626-7.726798v-.245398c0-3.049328.6033665-5.60828 1.7363626-7.726798 1.1329961-2.118519 2.7956218-3.781144 4.9141403-4.91414 2.1185185-1.132997 4.6774697-1.736363 7.7267981-1.736363z" mask="url(#b)"/><path d="m63.5 125c4.1421356 0 7.5 3.357864 7.5 7.5v20c0 4.142136-3.3578644 7.5-7.5 7.5-4.1421356 0-7.5-3.357864-7.5-7.5v-20c0-4.142136 3.3578644-7.5 7.5-7.5z" mask="url(#b)"/></g><path d="m131 29h59c7.179702 0 13 5.8202983 13 13 0 7.1797017-5.820298 13-13 13h-59c-7.179702 0-13-5.8202983-13-13 0-7.1797017 5.820298-13 13-13z" fill="#fff" mask="url(#b)"/><path d="m26 104h21c4.9705627 0 9 4.029437 9 9 0 4.970563-4.0294373 9-9 9h-21c-4.9705627 0-9-4.029437-9-9 0-4.970563 4.0294373-9 9-9z" fill="#fff" mask="url(#b)"/><path d="m120 188h42c4.970563 0 9 4.029437 9 9 0 4.970563-4.029437 9-9 9h-42c-4.970563 0-9-4.029437-9-9 0-4.970563 4.029437-9 9-9z" fill="#58a439" mask="url(#b)"/></g></svg>