<?xml version="1.0" encoding="UTF-8"?>
<svg width="465px" height="162px" viewBox="0 0 465 162" version="1.1" xmlns="http://www.w3.org/2000/svg" xmlns:xlink="http://www.w3.org/1999/xlink">
    <!-- Generator: Sketch 52.6 (67491) - http://www.bohemiancoding.com/sketch -->
    <title>openlab_light_ncl_col</title>
    <desc>Created with Sketch.</desc>
    <defs>
        <polygon id="path-1" points="0.06 0.501 62.883 0.501 62.883 93.794 0.06 93.794"></polygon>
    </defs>
    <g id="openlab_light_ncl_col" stroke="none" stroke-width="1" fill="none" fill-rule="evenodd">
        <path d="M369.961,113.888 C369.934,111.88 368.996,110.81 367.367,110.81 C365.867,110.81 364.875,111.908 364.773,113.888 L369.961,113.888 Z M367.418,122.693 C363.324,122.693 360.656,119.775 360.656,115.466 C360.656,111.24 363.504,108.189 367.598,108.189 C371.484,108.189 373.926,110.943 373.926,115.576 L373.926,116.134 L364.723,116.134 C364.723,118.544 365.766,119.857 367.57,119.857 C368.844,119.857 369.809,119.107 370.164,117.794 L373.852,118.115 C372.984,121.033 370.648,122.693 367.418,122.693 Z" id="Fill-1" fill="#10427A"></path>
        <path d="M460.34,113.888 C460.313,111.88 459.371,110.81 457.746,110.81 C456.246,110.81 455.254,111.908 455.152,113.888 L460.34,113.888 Z M457.793,122.693 C453.703,122.693 451.035,119.775 451.035,115.466 C451.035,111.24 453.879,108.189 457.973,108.189 C461.863,108.189 464.305,110.943 464.305,115.576 L464.305,116.134 L455.102,116.134 C455.102,118.544 456.145,119.857 457.949,119.857 C459.219,119.857 460.184,119.107 460.539,117.794 L464.227,118.115 C463.363,121.033 461.023,122.693 457.793,122.693 Z" id="Fill-2" fill="#10427A"></path>
        <polyline id="Fill-3" fill="#10427A" points="374.305 108.564 378.617 108.564 380.621 116.642 382.535 108.564 386.102 108.564 388.105 116.775 390.492 108.564 393.711 108.564 389.75 122.318 386.133 122.318 383.859 113.38 381.582 122.318 378.285 122.318 374.305 108.564"></polyline>
        <path d="M400.988,110.97 C399.246,110.97 398.047,112.47 397.996,115.411 C397.945,118.357 399.148,119.88 400.836,119.88 C402.156,119.88 403.402,118.865 403.629,117.072 L407.059,117.474 C406.609,120.658 404.074,122.693 400.563,122.693 C396.488,122.693 393.672,119.775 393.746,115.466 C393.82,111.079 396.766,108.189 401.117,108.189 C404.434,108.189 406.707,110.115 407.098,113.408 L403.547,113.779 C403.324,111.962 402.195,110.97 400.988,110.97" id="Fill-4" fill="#10427A"></path>
        <path d="M412.293,118.224 C412.293,119.345 413.008,120.013 414.277,120.013 C415.879,120.013 417.098,118.677 417.098,116.806 L417.098,115.576 C413.922,115.626 412.293,116.591 412.293,118.224 Z M417.176,120.095 C416.285,121.755 414.785,122.665 412.852,122.665 C410.008,122.665 408.277,121.005 408.277,118.462 C408.277,115.228 411.227,113.513 417.098,113.462 L417.098,112.872 C417.098,111.482 416.363,110.759 414.91,110.759 C413.313,110.759 412.395,111.427 412.191,112.681 L408.633,112.283 C409.242,109.579 411.43,108.189 415.117,108.189 C419.234,108.189 420.836,109.794 420.836,113.568 L420.836,119.669 C420.836,120.79 420.938,121.673 421.215,122.318 L417.43,122.318 C417.277,121.673 417.199,120.927 417.176,120.095 Z" id="Fill-5" fill="#10427A"></path>
        <path d="M425.551,118.009 C425.883,119.267 427.023,119.99 428.73,119.99 C430.18,119.99 430.992,119.345 430.992,118.49 C430.992,117.286 429.848,117.341 427.813,116.911 C424.563,116.243 422.934,115.146 422.934,112.658 C422.934,110.087 425.016,108.161 428.473,108.161 C431.297,108.161 433.203,109.419 434.016,111.747 L430.941,112.337 C430.48,111.24 429.645,110.783 428.32,110.783 C427.051,110.783 426.363,111.267 426.363,112.15 C426.363,113.353 427.688,113.298 430.152,113.833 C433.125,114.478 434.578,115.548 434.578,117.954 C434.578,120.658 432.289,122.611 428.398,122.611 C425.246,122.611 423.012,121.033 422.375,118.462 L425.551,118.009" id="Fill-6" fill="#10427A"></path>
        <polygon id="Fill-7" fill="#10427A" points="445.363 122.317 449.308 122.317 449.308 103.747 445.363 103.747"></polygon>
        <path d="M364.941,133.521 C365.508,132.572 366.18,131.861 366.949,131.384 C367.723,130.911 368.594,130.673 369.57,130.673 C370.406,130.673 371.109,130.841 371.68,131.173 C372.246,131.505 372.703,132.033 373.047,132.755 C373.387,133.474 373.559,134.283 373.559,135.177 L373.559,141.419 C373.559,141.884 373.66,142.216 373.871,142.411 C374.074,142.607 374.422,142.704 374.906,142.704 L375.797,142.704 L375.797,143.712 L369.082,143.712 L369.082,142.704 L369.719,142.704 C370.316,142.704 370.734,142.611 370.969,142.419 C371.203,142.228 371.32,141.943 371.32,141.564 L371.32,136.103 C371.32,134.915 371.141,134.036 370.781,133.466 C370.281,132.65 369.516,132.24 368.496,132.24 C367.48,132.24 366.633,132.654 365.957,133.478 C365.281,134.302 364.941,135.38 364.941,136.704 L364.941,141.427 C364.941,141.888 365.047,142.216 365.258,142.411 C365.469,142.607 365.816,142.704 366.305,142.704 L367.18,142.704 L367.18,143.712 L360.352,143.712 L360.352,142.704 L361.234,142.704 C361.676,142.704 362.016,142.615 362.246,142.431 C362.477,142.251 362.59,142.021 362.59,141.747 L362.59,133.462 C362.59,132.915 362.445,132.501 362.152,132.216 C361.859,131.935 361.438,131.79 360.891,131.79 L360.238,131.79 L360.238,130.896 L364.773,130.669 L364.941,133.521" id="Fill-8" fill="#10427A"></path>
        <path d="M379.664,125.579 C380.074,125.579 380.434,125.736 380.746,126.048 C381.055,126.357 381.211,126.72 381.211,127.142 C381.211,127.552 381.059,127.908 380.758,128.208 C380.457,128.509 380.098,128.658 379.676,128.658 C379.258,128.658 378.895,128.505 378.594,128.201 C378.285,127.896 378.133,127.536 378.133,127.126 C378.133,126.716 378.285,126.357 378.598,126.048 C378.906,125.736 379.262,125.579 379.664,125.579 Z M376.063,130.954 L381.211,130.786 L381.211,141.79 C381.211,142.091 381.285,142.306 381.43,142.431 C381.641,142.615 381.902,142.704 382.223,142.704 L383.672,142.704 L383.672,143.712 L376.344,143.712 L376.344,142.704 L377.699,142.704 C378.098,142.704 378.391,142.607 378.578,142.411 C378.766,142.216 378.859,141.931 378.859,141.56 L378.859,133.501 C378.859,132.993 378.715,132.611 378.422,132.349 C378.129,132.091 377.695,131.962 377.117,131.962 L376.063,131.962 L376.063,130.954 Z" id="Fill-9" fill="#10427A"></path>
        <path d="M436.332,125.579 C436.738,125.579 437.102,125.736 437.41,126.048 C437.719,126.357 437.875,126.72 437.875,127.142 C437.875,127.552 437.723,127.908 437.426,128.208 C437.121,128.509 436.762,128.658 436.344,128.658 C435.926,128.658 435.563,128.505 435.258,128.201 C434.949,127.896 434.797,127.536 434.797,127.126 C434.797,126.716 434.953,126.357 435.262,126.048 C435.574,125.736 435.93,125.579 436.332,125.579 Z M432.727,130.954 L437.875,130.786 L437.875,141.79 C437.875,142.091 437.949,142.306 438.094,142.431 C438.305,142.615 438.566,142.704 438.891,142.704 L440.34,142.704 L440.34,143.712 L433.008,143.712 L433.008,142.704 L434.363,142.704 C434.762,142.704 435.059,142.607 435.246,142.411 C435.43,142.216 435.527,141.931 435.527,141.56 L435.527,133.501 C435.527,132.993 435.379,132.611 435.086,132.349 C434.793,132.091 434.359,131.962 433.785,131.962 L432.727,131.962 L432.727,130.954 Z" id="Fill-10" fill="#10427A"></path>
        <path d="M382.781,130.896 L389.105,130.896 L389.105,131.849 C388.266,131.868 387.727,131.943 387.496,132.072 C387.262,132.204 387.145,132.392 387.145,132.634 C387.145,132.837 387.184,133.033 387.266,133.232 L390.645,140.802 L393.758,133.466 C393.805,133.341 393.828,133.216 393.828,133.087 C393.828,132.423 393.164,132.013 391.848,131.849 L391.848,130.896 L397.164,130.896 L397.164,131.849 C396.625,131.904 396.195,132.048 395.879,132.283 C395.559,132.517 395.309,132.829 395.137,133.228 L390.426,144.103 L389.668,144.103 L384.676,132.923 C384.492,132.529 384.27,132.255 384.012,132.099 C383.75,131.939 383.34,131.857 382.781,131.849 L382.781,130.896" id="Fill-11" fill="#10427A"></path>
        <path d="M399.227,136.439 L404.883,136.439 C405.219,136.439 405.477,136.326 405.664,136.103 C405.848,135.88 405.941,135.497 405.941,134.958 C405.941,133.954 405.625,133.103 404.988,132.4 C404.352,131.697 403.602,131.345 402.738,131.345 C401.77,131.345 400.953,131.771 400.277,132.618 C399.605,133.466 399.254,134.74 399.227,136.439 Z M408.461,137.388 L399.227,137.388 C399.273,139.341 399.641,140.716 400.332,141.521 C401.121,142.419 402.133,142.872 403.355,142.872 C405.16,142.872 406.609,141.865 407.703,139.849 L408.574,140.232 C407.238,142.814 405.316,144.103 402.797,144.103 C401.082,144.103 399.641,143.482 398.465,142.243 C397.293,140.997 396.707,139.411 396.707,137.474 C396.707,135.396 397.285,133.712 398.438,132.431 C399.594,131.146 401.012,130.505 402.703,130.505 C403.941,130.505 405.012,130.826 405.918,131.462 C406.816,132.103 407.496,133.021 407.953,134.212 C408.273,135.052 408.441,136.111 408.461,137.388 Z" id="Fill-12" fill="#10427A"></path>
        <path d="M422.102,138.954 C422.668,140.54 423.324,141.634 424.059,142.24 C424.793,142.849 425.703,143.154 426.781,143.154 C427.777,143.154 428.543,142.935 429.078,142.497 C429.613,142.06 429.883,141.505 429.883,140.833 C429.883,140.447 429.785,140.111 429.586,139.818 C429.391,139.529 429.117,139.314 428.77,139.169 C428.422,139.029 427.523,138.818 426.07,138.54 C424.68,138.263 423.711,137.974 423.164,137.673 C422.617,137.372 422.191,136.958 421.891,136.427 C421.586,135.896 421.434,135.322 421.434,134.701 C421.434,133.759 421.742,132.908 422.371,132.138 C423.184,131.161 424.313,130.673 425.77,130.673 C426.879,130.673 427.906,131.033 428.852,131.747 L429.754,130.786 L430.313,130.786 L430.664,135.376 L429.77,135.376 C429.367,134.044 428.824,133.087 428.141,132.501 C427.457,131.919 426.613,131.626 425.609,131.626 C424.742,131.626 424.063,131.841 423.57,132.271 C423.078,132.704 422.832,133.232 422.832,133.853 C422.832,134.404 423.059,134.857 423.516,135.22 C423.961,135.591 424.836,135.88 426.145,136.091 C427.664,136.345 428.652,136.56 429.109,136.732 C429.852,137.005 430.43,137.427 430.836,137.993 C431.246,138.564 431.449,139.255 431.449,140.072 C431.449,141.197 431.004,142.154 430.117,142.931 C429.227,143.712 428.098,144.103 426.73,144.103 C425.465,144.103 424.289,143.689 423.207,142.857 L422.207,143.993 L421.48,143.993 L421.207,138.954 L422.102,138.954" id="Fill-13" fill="#10427A"></path>
        <path d="M449.781,130.896 L455.934,130.896 L455.934,131.849 L455.359,131.849 C454.82,131.849 454.449,131.919 454.254,132.056 C454.059,132.193 453.957,132.392 453.957,132.65 C453.957,132.767 453.984,132.88 454.043,132.997 L457.629,140.665 L460.313,134.306 C460.5,133.857 460.598,133.415 460.598,132.982 C460.598,132.65 460.465,132.392 460.203,132.208 C459.938,132.021 459.41,131.904 458.621,131.849 L458.621,130.896 L463.938,130.896 L463.938,131.849 C462.93,131.947 462.25,132.4 461.902,133.201 L457.09,144.232 C456.27,146.107 455.453,147.392 454.641,148.087 C453.82,148.79 452.938,149.142 451.996,149.142 C451.313,149.142 450.762,148.951 450.348,148.579 C449.93,148.204 449.723,147.743 449.723,147.193 C449.723,146.783 449.852,146.443 450.105,146.181 C450.363,145.915 450.68,145.783 451.063,145.783 C451.41,145.783 451.703,145.896 451.941,146.122 C452.176,146.345 452.297,146.618 452.297,146.935 C452.297,147.036 452.277,147.169 452.242,147.341 C452.207,147.478 452.188,147.576 452.188,147.642 C452.188,147.857 452.328,147.966 452.613,147.966 C452.914,147.966 453.258,147.857 453.641,147.642 C454.02,147.427 454.375,147.083 454.707,146.607 C455.039,146.13 455.613,145.056 456.434,143.376 L451.578,132.997 C451.402,132.642 451.188,132.376 450.926,132.204 C450.664,132.029 450.281,131.911 449.781,131.849 L449.781,130.896" id="Fill-14" fill="#10427A"></path>
        <polyline id="Fill-15" fill="#10427A" points="342.996 103.743 348.039 103.743 355.074 115.204 355.066 103.743 359 103.743 359 122.314 354.801 122.314 346.934 109.419 346.926 122.314 342.996 122.314 342.996 103.743"></polyline>
        <path d="M340.66,125.111 L349.063,125.111 L349.063,126.115 L347.656,126.115 C347.16,126.115 346.813,126.201 346.613,126.361 C346.414,126.529 346.316,126.779 346.316,127.115 L346.316,137.271 C346.316,138.462 346.422,139.365 346.629,139.974 C346.938,140.876 347.504,141.595 348.328,142.134 C349.148,142.669 350.223,142.939 351.551,142.939 C353.387,142.939 354.785,142.462 355.75,141.513 C356.711,140.56 357.191,139.286 357.191,137.693 L357.191,129.669 C357.191,128.849 357.133,128.228 357.02,127.802 C356.906,127.38 356.738,127.048 356.523,126.814 C356.309,126.576 356.035,126.404 355.707,126.286 C355.375,126.173 354.824,126.115 354.055,126.115 L354.055,125.111 L361.734,125.111 L361.734,126.115 L361.188,126.115 C360.332,126.115 359.695,126.345 359.277,126.806 C358.859,127.267 358.648,127.935 358.648,128.81 L358.648,137.501 C358.648,139.669 358.031,141.337 356.789,142.493 C355.395,143.798 353.539,144.451 351.223,144.451 C349.219,144.451 347.641,144.165 346.492,143.599 C345.344,143.025 344.508,142.208 343.988,141.138 C343.598,140.329 343.402,139.306 343.402,138.076 L343.402,127.115 C343.402,126.806 343.293,126.56 343.082,126.384 C342.867,126.204 342.547,126.115 342.121,126.115 L340.66,126.115 L340.66,125.111" id="Fill-16" fill="#10427A"></path>
        <path d="M443.582,119.462 C443.141,119.548 442.738,119.587 442.387,119.587 C441.023,119.587 440.73,118.974 440.73,117.419 L440.73,111.24 L443.582,111.24 L443.582,108.564 L440.73,108.564 L440.73,104.572 L436.742,105.302 L436.742,108.564 L434.965,108.564 L434.965,111.24 L436.742,111.24 L436.742,117.849 C436.742,121.22 438.027,122.693 441.262,122.693 C442,122.693 442.781,122.607 443.582,122.458 L443.582,119.462" id="Fill-17" fill="#10427A"></path>
        <path d="M448.93,138.845 C448.859,140.193 448.602,141.161 448.164,141.747 C447.727,142.333 447.199,142.626 446.578,142.626 C446.059,142.626 445.629,142.435 445.293,142.048 C444.957,141.661 444.789,141.107 444.789,140.384 L444.789,132.009 L448.809,132.009 L448.809,130.9 L444.789,130.9 L444.789,125.576 L443.848,125.576 C443.762,127.365 443.324,128.763 442.531,129.767 C441.98,130.454 441.18,130.888 440.129,131.064 L440.129,132.009 L442.406,132.009 L442.406,140.771 C442.406,141.728 442.707,142.497 443.316,143.087 C443.922,143.677 444.762,143.974 445.836,143.974 C447,143.974 447.949,143.552 448.684,142.712 C449.414,141.872 449.805,140.583 449.863,138.845 L448.93,138.845" id="Fill-18" fill="#10427A"></path>
        <path d="M418.715,130.435 C416.477,130.435 414.59,133.052 413.816,135.974 L413.816,130.673 L409.172,130.896 L409.172,131.904 L410.285,131.904 C410.773,131.904 411.148,132.048 411.41,132.333 C411.672,132.622 411.801,133.072 411.801,133.693 L411.801,141.845 C411.801,142.083 411.691,142.286 411.473,142.454 C411.254,142.622 410.93,142.704 410.504,142.704 L409.227,142.704 L409.227,143.712 L417.23,143.712 L417.23,142.704 L415.602,142.704 C415.074,142.704 414.699,142.622 414.48,142.458 C414.262,142.294 414.152,142.056 414.152,141.747 L414.152,139.372 C414.152,136.911 415.195,132.708 417.277,132.708 C417.844,132.708 417.73,133.618 418.867,133.618 C419.773,133.618 420.418,132.935 420.418,132.064 C420.418,131.079 419.625,130.435 418.715,130.435" id="Fill-19" fill="#10427A"></path>
        <path d="M290.059,103.743 C290.059,103.743 290.059,114.798 290.059,122.306 C290.059,149.618 314.516,161.001 314.516,161.001 C314.516,161.001 338.973,149.618 338.973,122.306 C338.973,114.798 338.973,103.743 338.973,103.743 L290.059,103.743" id="Fill-20" fill="#10427A"></path>
        <polygon id="Fill-21" fill="#FFFFFF" points="290.863 122.314 338.148 122.314 338.148 104.556 290.863 104.556"></polygon>
        <path d="M330.156,140.345 C330.156,138.798 329.926,137.275 329.484,135.81 C325.23,138.595 321.008,139.341 318.504,137.814 C318.641,137.638 318.727,137.415 318.727,137.173 C318.727,136.599 318.258,136.134 317.684,136.134 C317.445,136.134 317.223,136.216 317.047,136.357 C315.52,133.853 316.262,129.626 319.051,125.372 C317.586,124.931 316.059,124.701 314.516,124.701 C312.973,124.701 311.449,124.931 309.98,125.372 C312.77,129.626 313.512,133.853 311.988,136.353 C311.809,136.216 311.59,136.134 311.348,136.134 C310.773,136.134 310.309,136.599 310.309,137.173 C310.309,137.415 310.391,137.634 310.527,137.814 C308.023,139.337 303.801,138.595 299.547,135.806 C299.105,137.275 298.875,138.798 298.875,140.341 C298.875,141.884 299.105,143.411 299.547,144.876 C303.801,142.091 308.027,141.345 310.527,142.872 C310.391,143.048 310.309,143.271 310.309,143.513 C310.309,144.087 310.773,144.552 311.348,144.552 C311.59,144.552 311.809,144.47 311.988,144.329 C313.512,146.833 312.77,151.06 309.98,155.31 C311.449,155.755 312.973,155.986 314.516,155.986 C316.059,155.986 317.586,155.755 319.051,155.31 C316.262,151.06 315.52,146.833 317.047,144.329 C317.223,144.47 317.445,144.552 317.684,144.552 C318.258,144.552 318.727,144.087 318.727,143.513 C318.727,143.271 318.641,143.048 318.504,142.872 C321.008,141.345 325.23,142.091 329.484,144.876 C329.93,143.411 330.16,141.888 330.16,140.345 L330.156,140.345" id="Fill-22" fill="#FFFFFF"></path>
        <path d="M317.344,140.341 C317.344,141.904 316.078,143.169 314.516,143.169 C312.953,143.169 311.688,141.904 311.688,140.341 C311.688,138.779 312.953,137.513 314.516,137.513 C316.078,137.513 317.344,138.779 317.344,140.341" id="Fill-23" fill="#10427A"></path>
        <path d="M299.535,115.423 C298.328,114.529 296.809,114.533 296.547,114.533 C296.844,113.982 297.051,113.853 297.574,113.552 C295.68,113.552 295.465,113.04 295.398,112.603 C295.906,112.677 296.496,112.533 296.73,112.298 C295.355,112.224 294.906,111.298 294.746,110.97 C295.816,110.892 295.801,110.353 295.66,110.021 C295.551,109.771 295.188,109.556 294.824,109.669 C294.512,109.767 294.191,110.216 293.863,110.243 C293.555,110.267 293.516,109.958 293.516,109.771 C293.168,109.771 292.871,109.943 292.648,110.161 C292.734,108.923 294.051,108.431 294.887,108.579 C294.887,108.579 294.848,108.056 294.68,107.888 C294.426,107.634 294.102,107.661 293.863,107.486 C293.707,107.368 293.703,107.099 293.969,106.97 C293.707,106.626 292.992,106.595 292.992,106.595 C294.469,105.497 295.441,106.896 295.754,107.966 C296.148,107.478 296.188,107.201 296.137,106.931 C296.082,106.634 295.844,106.419 295.867,106.247 C295.906,105.993 296.184,106.044 296.184,106.044 C296.148,105.65 295.828,105.341 295.559,105.197 C295.559,105.197 296.754,105.091 297.234,106.314 C297.684,107.454 297.102,108.161 297.102,108.161 C297.102,108.161 297.547,108.216 297.734,107.974 C297.938,107.72 297.82,107.4 298.023,107.228 C298.23,107.052 298.461,107.384 298.461,107.384 C298.684,107.161 298.535,106.615 298.488,106.462 C298.488,106.462 299.113,106.853 299.035,107.583 C298.984,108.072 298.492,108.478 298.285,108.747 C298.078,109.013 297.48,109.595 298.449,111.267 C299.039,112.29 299.621,112.701 299.941,112.849 C299.746,113.232 299.383,114.302 299.535,115.423" id="Fill-24" fill="#E51636"></path>
        <path d="M294.824,117.673 C293.668,117.755 291.598,118.224 292.656,120.365 C292.656,119.896 292.813,119.478 293.086,119.345 C293.184,119.673 293.426,119.732 293.609,119.603 C293.781,119.486 293.988,119.118 294.188,118.982 C294.383,118.849 294.645,118.775 294.992,118.872 C294.051,120.454 295.148,121.986 296.004,121.9 C295.516,121.56 295.535,121.111 295.551,120.951 C295.551,120.951 295.852,121.021 295.969,120.779 C296.063,120.587 295.91,120.201 296.012,119.841 C296.082,119.587 296.313,119.474 296.5,119.501 C296.797,119.548 296.898,119.814 296.887,120.052 C296.875,120.353 296.715,120.618 296.715,120.618 C297.223,120.986 298.637,120.54 299.477,119.814 C299.477,120.033 299.453,120.427 299.238,120.833 C299.992,120.962 301.301,120.146 301.684,119.462 C301.734,119.79 301.664,120.497 301.285,120.951 C301.855,121.083 303.41,120.615 304.617,119.408 C304.688,120.083 305.699,121.068 306.82,120.54 C306.82,120.54 306.305,120.251 306.305,119.845 C306.305,119.185 307.031,118.685 307.934,118.29 C308.977,117.833 310.691,117.626 312.426,116.802 C315.625,115.286 316.195,113.818 318.824,113.818 C319.969,113.818 321.094,114.083 321.672,115.029 C322.246,115.97 322.102,117.087 322.746,117.701 C323.391,118.318 324.516,117.865 325.125,117.677 C326.656,117.208 328.898,116.267 330.27,116.173 C331.633,116.076 331.996,117.099 332.027,117.181 C332.133,117.482 332.008,117.665 331.809,117.654 C331.352,117.626 330.523,117.415 330.047,117.689 C329.355,118.079 329.551,119.021 329.551,119.021 C329.727,118.759 330.148,118.322 330.598,118.337 C330.613,118.376 330.691,118.884 331.109,118.697 C331.395,118.572 331.711,118.181 332.266,118.279 C331.734,118.74 330.738,120.533 332.156,121.302 C331.945,120.986 331.918,120.404 332.086,120.13 C332.086,120.13 332.496,120.4 332.762,120.009 C332.875,119.849 332.723,119.4 332.813,119.048 C332.891,118.74 333.195,118.564 333.195,118.564 C333.309,118.947 334.02,120.142 335.863,120.036 C335.438,119.868 335.176,119.576 335.105,119.361 C335.324,119.208 335.422,118.845 335.199,118.755 C334.996,118.669 334.57,118.743 334.371,118.466 C334.137,118.146 334.191,117.642 334.191,117.642 C334.824,117.923 336.422,118.548 337.066,117.118 C336.875,117.259 336.32,117.427 336.004,117.4 C335.965,117.236 335.789,116.783 335.449,116.759 C335.008,116.724 334.688,116.861 334.266,116.919 C333.969,116.958 333.801,116.798 333.73,116.642 C333.668,116.509 333.727,116.322 333.797,116.224 C333.945,116.005 334.289,115.868 334.289,115.868 C334.051,115.4 333.258,115.599 333.086,115.63 C333.121,115.361 333.391,114.88 333.91,114.665 C333.715,114.333 333.113,114.033 332.133,114.197 C332.246,113.79 332.59,113.353 332.883,113.251 C332.352,112.947 331.109,113.072 329.988,113.892 C330.031,113.646 330,112.915 329.66,112.611 C329.66,112.611 328.199,114.451 326.766,114.204 C325.332,113.962 325.559,112.24 325.559,112.24 C325.559,112.24 328.387,112.689 329.758,112.056 C331.129,111.419 331.117,110.443 332.266,109.845 C333.188,109.365 334.289,109.763 334.289,109.763 C334.117,108.818 332.324,108.076 330.945,109.525 C330.945,109.525 330.914,107.337 327.535,107.509 C326.305,107.572 324.012,108.263 321.914,108.646 C319.863,109.021 316.824,109.201 315.527,109.201 C314.234,109.201 312.961,108.919 312.961,108.072 C312.961,107.224 313.898,107.107 314.516,107.107 C315.5,107.107 316.875,107.685 317.984,108.068 C318.777,108.345 319.555,108.349 319.984,108.349 C321.145,108.349 322.605,107.767 323.34,107.482 C324.07,107.193 324.648,107.013 326.051,107.13 C325.613,106.56 323.996,105.884 322.125,106.88 C321.953,106.583 322.313,106.017 323.039,105.786 C322.707,105.576 321.645,105.283 320.363,105.314 C318.332,105.365 317.691,106.322 315.723,106.236 C313.75,106.154 311.941,106.482 311.941,107.97 C311.941,109.15 313.387,110.06 315.723,110.154 C315.664,110.341 315.348,110.568 315.246,110.63 C316.055,110.759 317.238,110.661 318.773,109.669 C318.813,109.833 318.676,110.255 318.508,110.368 C319.063,110.368 320.086,110.087 321.32,109.314 C321.32,109.478 321.297,109.775 321,110.076 C322.441,109.974 323.23,109.243 324.211,108.931 C325.516,108.521 329.73,107.54 329.73,109.872 C329.73,110.431 329.457,111.228 328.004,111.228 C326.555,111.228 324.066,110.564 323.582,110.478 C323.102,110.396 322.563,110.279 321.293,110.454 C320.109,110.622 311.215,111.892 309.762,112.099 C309.762,112.576 309.777,114.072 310.563,114.751 C309.945,115.036 309.289,115.236 308.141,114.712 C308.051,115.099 308.141,116.212 308.691,116.81 C308.23,116.958 307.277,117.201 306.371,116.611 C306.004,117.263 305.039,119.017 302.414,118.478 C302.582,118.353 303.043,117.435 303.043,117.271 C302.52,117.658 301.145,118.408 298.582,118.111 C297.805,118.021 296.988,117.779 296.766,117.279 C296.527,116.755 296.863,116.005 296.699,115.591 C296.355,114.716 295.422,114.806 295.422,114.806 C295.523,114.892 295.879,115.107 295.949,115.419 C295.949,115.419 295.574,115.396 295.555,115.822 C295.527,116.404 295.727,117.04 295.727,117.04 C294.648,115.962 292.871,114.802 292.297,116.704 C292.531,116.439 292.82,116.286 293.148,116.329 C293.148,116.329 292.938,116.661 293.355,116.951 C293.555,117.083 294.043,116.935 294.293,117.052 C294.578,117.181 294.84,117.669 294.84,117.669" id="Fill-25" fill="#E51636"></path>
        <path d="M318.438,117.107 C318.664,117.267 318.559,117.447 318.449,117.548 C318.34,117.65 317.172,118.415 316.414,118.181 C315.832,118.001 315.836,116.962 315.035,116.626 C314.391,116.357 313.672,116.841 313.672,116.841 C313.957,116.868 314.289,116.97 314.406,117.04 C314.406,117.04 314.277,117.275 314.516,117.404 C314.754,117.536 314.93,117.474 315.105,117.665 C315.328,117.911 315.145,118.419 315.145,118.419 C313.414,117.06 311.809,117.982 311.695,118.861 C311.844,118.759 312.285,118.525 312.539,118.579 C312.539,118.579 312.543,118.845 312.762,118.9 C313.012,118.966 313.316,118.736 313.684,118.79 C314.074,118.853 314.402,119.204 314.402,119.204 C313.855,119.283 312.676,120.154 313.563,121.544 C313.543,121.29 313.57,120.966 313.734,120.853 C313.734,120.853 314.039,121.001 314.242,120.833 C314.441,120.661 314.508,120.247 314.762,119.951 C315.02,119.654 315.344,119.63 315.344,119.63 C315.203,120.396 315.891,121.896 317.156,121.583 C316.891,121.431 316.641,121.111 316.641,120.931 C316.641,120.931 316.996,120.802 316.957,120.611 C316.895,120.29 316.414,120.361 316.414,119.97 C316.414,119.724 316.625,119.544 316.953,119.544 C317.719,119.544 317.613,120.521 317.613,120.521 C318.105,120.47 318.859,119.908 319.008,119.275 C319.289,119.451 319.406,120.095 319.375,120.462 C320.004,120.201 320.508,119.736 320.508,117.978 C321.012,118.728 322.332,119.146 323.289,118.486 C322.059,118.286 321.809,117.017 321.746,116.786 C321.68,116.552 321.551,115.521 320.984,114.958 C320.184,114.154 318.371,114.212 317.32,114.544 C317.047,114.63 316.719,114.802 316.719,115.326 C316.719,115.806 316.824,116.337 317.566,116.673 C318.078,116.904 318.32,117.025 318.438,117.107" id="Fill-26" fill="#E51636"></path>
        <path d="M307.691,110.603 C307.645,110.845 307.348,110.958 306.98,110.888 C306.262,110.751 306.258,110.236 306.488,110.142 C306.578,110.208 306.801,110.353 307,110.392 C307.301,110.454 307.43,110.4 307.625,110.392 C307.719,110.388 307.711,110.505 307.691,110.603 Z M305.426,113.513 C305.215,113.935 304.336,114.56 303.828,114.29 C304.055,114.212 304.664,113.767 304.98,113.22 C304.883,113.173 304.699,113.052 304.652,112.986 C304.465,113.068 304.125,113.404 303.852,113.767 C303.785,113.564 303.945,113.017 304.129,112.728 C303.98,112.697 303.734,112.591 303.637,112.544 C303.387,113.126 303.371,113.868 303.445,114.095 C302.926,113.849 302.906,112.771 303.121,112.349 C302.465,111.892 302.68,111.337 302.879,111.228 C302.887,111.408 303.047,111.79 303.613,112.076 C304.18,112.361 304.41,112.165 304.473,112.04 C304.59,111.81 304.305,111.595 304.105,111.376 C303.91,111.165 303.867,110.826 304,110.661 C304.172,110.454 304.465,110.497 304.605,110.603 C303.914,110.724 304.75,111.451 304.965,111.56 C305.18,111.669 306.262,111.911 305.949,111.279 C306.117,111.329 306.324,111.54 306.258,111.802 C306.207,112.009 305.91,112.173 305.621,112.142 C305.328,112.111 304.988,112.009 304.871,112.24 C304.809,112.368 304.789,112.669 305.352,112.954 C305.918,113.24 306.324,113.142 306.469,113.04 C306.5,113.267 306.184,113.767 305.426,113.513 Z M304.113,108.798 C304.18,108.728 304.27,108.65 304.324,108.728 C304.434,108.884 304.465,109.025 304.691,109.232 C304.844,109.368 305.094,109.458 305.199,109.49 C305.258,109.732 304.844,110.033 304.309,109.54 C304.031,109.283 303.945,108.982 304.113,108.798 Z M310.82,108.306 C310.859,108.236 310.934,107.943 310.66,107.861 C310.262,107.74 309.438,107.872 309.438,107.872 C309.824,107.427 309.66,106.326 309.191,106.025 C309.133,106.521 308.652,106.806 308.195,106.685 C307.617,106.536 307.84,105.724 308.012,105.384 C307.57,105.353 306.813,105.466 306.176,106.388 C306.012,105.24 304.832,105.017 304.551,104.982 C304.785,105.474 304.5,106.232 304.074,106.072 C303.988,105.302 303.184,104.974 303.125,105.513 C303.027,106.408 302.195,107.493 301.512,107.552 C301.449,108.048 302.031,108.322 302.363,108.329 C301.531,109.544 300.336,109.302 299.684,109.079 C299.66,109.544 300.168,110.521 301.133,110.521 C300.625,111.286 299.559,111.345 299.238,111.185 C299.098,111.919 300.293,112.579 300.617,112.634 C299.637,114.201 299.973,116.107 300.516,116.865 C300.516,116.865 300.727,116.326 301.02,116.048 C301.27,115.814 301.453,115.763 301.617,115.845 C301.844,115.958 301.777,116.31 301.645,116.568 C301.41,117.04 300.883,117.509 300.883,117.509 C301.773,117.72 303.406,116.767 303.609,116.365 C303.77,116.853 303.445,117.681 303.219,118.076 C304.949,118.259 305.813,116.751 306.188,115.833 C306.781,116.497 307.531,116.572 307.941,116.478 C307.379,115.427 307.629,114.337 307.883,113.951 C308.469,114.521 309.336,114.642 309.758,114.501 C309.199,113.728 309.191,111.814 309.348,111.142 C309.742,111.408 310.258,111.478 310.469,111.329 C310.469,111.329 310.113,110.673 310.215,109.724 C310.277,109.13 310.652,108.622 310.82,108.306 Z" id="Fill-27" fill="#E51636"></path>
        <text id="at" font-family="LucidaGrande, Lucida Grande" font-size="29.2949" font-weight="normal" fill="#000000">
            <tspan x="260.8942" y="115.886989">at</tspan>
        </text>
        <g id="Group-30">
            <mask id="mask-2" fill="white">
                <use xlink:href="#path-1"></use>
            </mask>
            <g id="Clip-29"></g>
            <path d="M62.883,47.146 C62.883,41.993 62.84,37.548 62.754,33.81 C62.668,30.076 62.344,26.786 61.785,23.951 C61.227,21.118 60.367,18.583 59.211,16.349 C58.051,14.115 56.441,11.97 54.379,9.908 C51.371,6.9 47.891,4.579 43.941,2.951 C39.988,1.318 35.824,0.501 31.441,0.501 C27.059,0.501 22.895,1.318 18.941,2.951 C14.992,4.579 11.512,6.9 8.504,9.908 C6.441,11.97 4.832,14.115 3.672,16.349 C2.512,18.583 1.652,21.118 1.094,23.951 C0.539,26.786 0.215,30.076 0.129,33.81 C0.043,37.548 0,41.993 0,47.146 C0,52.302 0.043,56.767 0.129,60.548 C0.215,64.326 0.539,67.634 1.094,70.47 C1.652,73.302 2.512,75.818 3.672,78.009 C4.832,80.197 6.441,82.326 8.504,84.388 C11.512,87.392 14.992,89.712 18.941,91.345 C22.895,92.978 27.059,93.794 31.441,93.794 C35.824,93.794 39.988,92.978 43.941,91.345 C47.891,89.712 51.371,87.392 54.379,84.388 C56.441,82.326 58.051,80.197 59.211,78.009 C60.367,75.818 61.227,73.302 61.785,70.47 C62.344,67.634 62.668,64.326 62.754,60.548 C62.84,56.767 62.883,52.302 62.883,47.146 Z M55.922,47.146 C55.922,52.04 55.859,56.228 55.73,59.708 C55.602,63.189 55.301,66.197 54.828,68.732 C54.359,71.263 53.648,73.454 52.703,75.302 C51.758,77.15 50.469,78.888 48.836,80.521 C46.516,82.841 43.855,84.599 40.848,85.802 C37.844,87.005 34.707,87.607 31.441,87.607 C28.176,87.607 25.039,87.005 22.035,85.802 C19.027,84.599 16.363,82.841 14.047,80.521 C12.414,78.888 11.125,77.15 10.18,75.302 C9.234,73.454 8.527,71.263 8.055,68.732 C7.582,66.197 7.281,63.189 7.152,59.708 C7.02,56.228 6.957,52.04 6.957,47.146 C6.957,42.251 7.02,38.064 7.152,34.583 C7.281,31.103 7.582,28.099 8.055,25.564 C8.527,23.029 9.234,20.837 10.18,18.99 C11.125,17.142 12.414,15.404 14.047,13.775 C16.363,11.454 19.027,9.693 22.035,8.49 C25.039,7.286 28.176,6.685 31.441,6.685 C34.707,6.685 37.844,7.286 40.848,8.49 C43.855,9.693 46.516,11.454 48.836,13.775 C50.469,15.404 51.758,17.142 52.703,18.99 C53.648,20.837 54.359,23.029 54.828,25.564 C55.301,28.099 55.602,31.103 55.73,34.583 C55.859,38.064 55.922,42.251 55.922,47.146 Z" id="Fill-28" fill="#000000" mask="url(#mask-2)"></path>
        </g>
        <path d="M126.723,61.966 C126.723,57.068 126.188,52.236 125.113,47.466 C124.039,42.701 121.914,38.728 118.734,35.548 C117.102,33.915 114.977,32.607 112.355,31.618 C109.734,30.63 106.793,30.134 103.527,30.134 C100.004,30.134 96.742,30.693 93.734,31.81 C90.727,32.927 87.852,35.29 85.102,38.896 L85.102,30.911 L78.527,30.911 L78.527,122.658 L85.102,122.658 L85.102,85.029 C87.852,88.638 90.727,91.001 93.734,92.118 C96.742,93.236 100.004,93.794 103.527,93.794 C106.793,93.794 109.734,93.298 112.355,92.31 C114.977,91.322 117.102,90.013 118.734,88.38 C121.914,85.201 124.039,81.228 125.113,76.462 C126.188,71.693 126.723,66.861 126.723,61.966 Z M120.152,61.966 C120.152,65.228 119.961,68.408 119.574,71.497 C119.188,74.591 118.367,77.361 117.121,79.81 C115.875,82.259 114.094,84.236 111.773,85.74 C109.457,87.243 106.406,87.993 102.625,87.993 C98.844,87.993 95.797,87.243 93.477,85.74 C91.156,84.236 89.375,82.259 88.133,79.81 C86.887,77.361 86.07,74.591 85.684,71.497 C85.297,68.408 85.102,65.228 85.102,61.966 C85.102,58.786 85.297,55.626 85.684,52.493 C86.07,49.357 86.887,46.564 88.133,44.118 C89.375,41.669 91.156,39.697 93.477,38.193 C95.797,36.689 98.844,35.935 102.625,35.935 C106.406,35.935 109.457,36.689 111.773,38.193 C114.094,39.697 115.875,41.669 117.121,44.118 C118.367,46.564 119.188,49.357 119.574,52.493 C119.961,55.626 120.152,58.786 120.152,61.966 Z" id="Fill-31" fill="#000000"></path>
        <path d="M186.66,63.38 L186.66,60.419 C186.66,50.88 184.469,43.451 180.09,38.126 C175.707,32.798 169.609,30.134 161.789,30.134 C153.973,30.134 147.875,32.927 143.492,38.513 C139.113,44.095 136.922,51.915 136.922,61.966 C136.922,72.361 139.176,80.263 143.688,85.677 C148.199,91.087 154.746,93.794 163.336,93.794 C165.914,93.794 168.234,93.599 170.293,93.212 C172.355,92.826 174.27,92.224 176.031,91.408 C177.793,90.591 179.465,89.583 181.055,88.38 C182.645,87.177 184.211,85.806 185.758,84.259 L180.863,80.392 C178.199,83.056 175.602,84.966 173.066,86.126 C170.531,87.283 167.418,87.865 163.727,87.865 C157.109,87.865 152.086,85.759 148.648,81.552 C145.211,77.341 143.492,71.286 143.492,63.38 L186.66,63.38 Z M180.09,58.099 L143.492,58.099 C143.578,56.638 143.664,55.372 143.75,54.298 C143.836,53.224 143.965,52.279 144.137,51.462 C144.313,50.646 144.504,49.829 144.719,49.013 C144.93,48.197 145.254,47.318 145.684,46.372 C147.059,43.111 149.188,40.552 152.063,38.708 C154.941,36.861 158.184,35.935 161.789,35.935 C165.398,35.935 168.641,36.861 171.52,38.708 C174.398,40.552 176.523,43.111 177.898,46.372 C178.242,47.318 178.543,48.197 178.801,49.013 C179.059,49.829 179.273,50.646 179.445,51.462 C179.617,52.279 179.746,53.224 179.832,54.298 C179.918,55.372 180.004,56.638 180.09,58.099 Z" id="Fill-32" fill="#000000"></path>
        <path d="M248.32,93.021 L248.32,53.329 C248.32,45.943 246.172,40.189 241.879,36.068 C237.754,32.115 232.258,30.134 225.387,30.134 C217.828,30.134 211.727,32.841 207.09,38.255 L207.09,30.911 L200.516,30.911 L200.516,93.021 L207.09,93.021 L207.09,54.49 C207.09,48.564 208.613,43.99 211.664,40.767 C214.711,37.548 219.027,35.935 224.613,35.935 C230.195,35.935 234.449,37.525 237.371,40.704 C240.289,43.884 241.75,48.478 241.75,54.49 L241.75,93.021" id="Fill-33" fill="#000000"></path>
        <polyline id="Fill-34" fill="#000000" points="345.383 93.021 345.383 86.833 296.676 86.833 296.676 1.271 289.715 1.271 289.715 93.021"></polyline>
        <path d="M400.559,93.021 L400.559,50.497 C400.559,43.966 398.605,38.943 394.695,35.419 C390.789,31.896 384.711,30.134 376.461,30.134 C371.395,30.134 367.145,30.802 363.707,32.134 C360.273,33.466 357.223,35.978 354.559,39.673 L359.324,43.798 C361.301,40.962 363.559,38.943 366.09,37.74 C368.625,36.536 372.082,35.935 376.461,35.935 C382.82,35.935 387.332,37.224 389.992,39.802 C392.656,42.38 393.988,46.158 393.988,51.138 L393.988,58.099 L373.887,58.099 C367.098,58.099 361.793,59.665 357.973,62.802 C354.148,65.939 352.238,70.341 352.238,76.013 C352.238,78.329 352.625,80.564 353.398,82.712 C354.172,84.861 355.289,86.661 356.75,88.122 C358.727,90.185 361.109,91.646 363.898,92.505 C366.691,93.365 370.406,93.794 375.047,93.794 C379.426,93.794 383.016,93.298 385.805,92.31 C388.598,91.322 391.324,89.497 393.988,86.833 L393.988,93.021 L400.559,93.021 Z M393.988,71.372 C393.988,77.126 392.828,81.079 390.508,83.228 C388.273,85.376 385.848,86.704 383.227,87.22 C380.609,87.736 377.879,87.993 375.047,87.993 C369.375,87.993 365.254,87.005 362.676,85.029 C360.098,83.056 358.809,80.005 358.809,75.88 C358.809,67.548 364.094,63.38 374.66,63.38 L393.988,63.38 L393.988,71.372 Z" id="Fill-35" fill="#000000"></path>
        <path d="M462.504,61.966 C462.504,57.068 461.965,52.236 460.891,47.466 C459.816,42.701 457.691,38.728 454.512,35.548 C452.883,33.915 450.754,32.607 448.137,31.618 C445.516,30.63 442.57,30.134 439.305,30.134 C435.785,30.134 432.52,30.693 429.512,31.81 C426.508,32.927 423.629,35.29 420.883,38.896 L420.883,1.271 L414.305,1.271 L414.305,93.021 L420.883,93.021 L420.883,85.029 C423.629,88.638 426.508,91.001 429.512,92.118 C432.52,93.236 435.785,93.794 439.305,93.794 C442.57,93.794 445.516,93.298 448.137,92.31 C450.754,91.322 452.883,90.013 454.512,88.38 C457.691,85.201 459.816,81.228 460.891,76.462 C461.965,71.693 462.504,66.861 462.504,61.966 Z M455.93,61.966 C455.93,65.228 455.738,68.408 455.352,71.497 C454.965,74.591 454.148,77.361 452.902,79.81 C451.656,82.259 449.871,84.236 447.555,85.74 C445.234,87.243 442.184,87.993 438.406,87.993 C434.625,87.993 431.574,87.243 429.254,85.74 C426.938,84.236 425.156,82.259 423.91,79.81 C422.664,77.361 421.848,74.591 421.461,71.497 C421.074,68.408 420.883,65.228 420.883,61.966 C420.883,58.786 421.074,55.626 421.461,52.493 C421.848,49.357 422.664,46.564 423.91,44.118 C425.156,41.669 426.938,39.697 429.254,38.193 C431.574,36.689 434.625,35.935 438.406,35.935 C442.184,35.935 445.234,36.689 447.555,38.193 C449.871,39.697 451.656,41.669 452.902,44.118 C454.148,46.564 454.965,49.357 455.352,52.493 C455.738,55.626 455.93,58.786 455.93,61.966 Z" id="Fill-36" fill="#000000"></path>
    </g>
</svg>